<?xml version="1.0" encoding="UTF-8"?>
<svg width="312px" height="312px" viewBox="0 0 312 312" version="1.1" xmlns="http://www.w3.org/2000/svg" xmlns:xlink="http://www.w3.org/1999/xlink">
    <title>logo</title>
    <defs>
        <path d="M105.716402,0 L194.283598,0 C197.702922,-2.87632099e-14 200.744237,2.1731724 201.852074,5.4080562 L296.372622,281.408056 C297.804113,285.58801 295.576044,290.136985 291.39609,291.568476 C290.561798,291.854192 289.686006,292 288.804146,292 L230.201971,292 C227.235842,292 224.513169,290.358888 223.127956,287.736082 L218.905603,279.741347 C217.52039,277.118542 214.797717,275.477429 211.831588,275.477429 L89.1285775,275.477429 C86.1834693,275.477429 83.4765269,277.095581 82.0821031,279.68966 L77.7290365,287.787769 C76.3346127,290.381848 73.6276703,292 70.6825621,292 L11.1958539,292 C6.77757591,292 3.19585391,288.418278 3.19585391,284 C3.19585391,283.11814 3.3416616,282.242348 3.62737801,281.408056 L98.147926,5.4080562 C99.2557629,2.1731724 102.297078,7.73354697e-15 105.716402,0 Z" id="path-1"></path>
    </defs>
    <g id="logo" stroke="none" stroke-width="1" fill="none" fill-rule="evenodd">
        <g id="编组-2" transform="translate(6.000000, 10.000000)">
            <mask id="mask-2" fill="white">
                <use xlink:href="#path-1"></use>
            </mask>
            <path stroke="#FFFFFF" stroke-width="10" d="M194.283598,-5 L105.716402,-5 C102.938201,-5 100.313567,-4.11714871 98.1584528,-2.57721165 C96.003339,-1.03727459 94.317746,1.15974824 93.4176285,3.78809133 L-1.10291942,279.788091 C-1.56720859,281.143816 -1.80414609,282.566978 -1.80414609,284 C-1.80414609,287.589851 -0.349071531,290.839851 2.00346575,293.192388 C4.35600303,295.544925 7.60600303,297 11.1958539,297 L70.6825621,297 C73.0754625,297 75.371608,296.342626 77.3527708,295.158329 C79.3339337,293.974033 81.0001137,292.262814 82.1330831,290.155125 L86.4861496,282.057016 C86.7476041,281.570626 87.1321072,281.175729 87.5892986,280.90243 C88.04649,280.629131 88.5763698,280.477429 89.1285775,280.477429 L211.831588,280.477429 C212.387737,280.477429 212.921062,280.631284 213.380282,280.908082 C213.839502,281.18488 214.224616,281.584622 214.484343,282.076398 L218.706697,290.071134 C219.832182,292.202163 221.501011,293.93438 223.490963,295.133839 C225.480915,296.333298 227.791991,297 230.201971,297 L288.804146,297 C290.237168,297 291.66033,296.763062 293.016055,296.298773 C296.412267,295.135687 299.015527,292.706123 300.478961,289.718277 C301.942396,286.730431 302.266006,283.184304 301.102919,279.788091 L206.582371,3.78809133 C205.682254,1.15974824 203.996661,-1.03727459 201.841547,-2.57721165 C199.686433,-4.11714871 197.061799,-5 194.283598,-5 Z"></path>
            <polygon id="三角形" fill-opacity="0.34489729" fill="#FFFFFF" mask="url(#mask-2)" points="166 4 216.433956 4 152 146"></polygon>
            <polygon id="三角形备份" fill-opacity="0.34489729" fill="#FFFFFF" mask="url(#mask-2)" transform="translate(116.216978, 222.000000) scale(-1, -1) translate(-116.216978, -222.000000) " points="98 151 148.433956 151 84 293"></polygon>
            <polygon id="三角形备份-2" fill-opacity="0.34489729" fill="#FFFFFF" mask="url(#mask-2)" transform="translate(223.500000, 236.928703) scale(-1, -1) translate(-223.500000, -236.928703) " points="153.900921 272.357406 150.5 147.5 296.5 326.357406"></polygon>
            <polygon id="三角形备份-3" fill-opacity="0.34489729" fill="#FFFFFF" mask="url(#mask-2)" points="5.48244968 93.8574062 2 -31 151.5 147.857406"></polygon>
            <rect id="矩形" fill="#FFFFFF" mask="url(#mask-2)" x="149" y="4" width="3" height="272" rx="1"></rect>
            <rect id="矩形备份-7" fill="#FFFFFF" mask="url(#mask-2)" transform="translate(159.299848, 113.158522) rotate(15.000000) translate(-159.299848, -113.158522) " x="157.799848" y="-4.84147809" width="3" height="236" rx="1"></rect>
            <rect id="矩形备份-17" fill="#FFFFFF" mask="url(#mask-2)" transform="translate(121.084089, 255.623711) rotate(15.000000) translate(-121.084089, -255.623711) " x="119.584089" y="234.623711" width="3" height="42" rx="1"></rect>
            <rect id="矩形备份-2" fill="#FFFFFF" mask="url(#mask-2)" transform="translate(132.000000, 178.042940) rotate(30.000000) translate(-132.000000, -178.042940) " x="130.5" y="47.0429399" width="3" height="262" rx="1"></rect>
            <rect id="矩形备份-20" fill="#FFFFFF" mask="url(#mask-2)" transform="translate(206.750000, 48.572142) rotate(30.000000) translate(-206.750000, -48.572142) " x="205.25" y="37.0721421" width="3" height="23" rx="1"></rect>
            <rect id="矩形备份-8" fill="#FFFFFF" mask="url(#mask-2)" transform="translate(42.207107, 254.792893) rotate(45.000000) translate(-42.207107, -254.792893) " x="40.7071068" y="236.292893" width="3" height="37" rx="1"></rect>
            <rect id="矩形备份-16" fill="#FFFFFF" mask="url(#mask-2)" transform="translate(10.500000, 285.500000) rotate(45.000000) translate(-10.500000, -285.500000) " x="9" y="268" width="3" height="35" rx="1"></rect>
            <rect id="矩形备份-15" fill="#FFFFFF" mask="url(#mask-2)" transform="translate(216.500000, 80.000000) rotate(45.000000) translate(-216.500000, -80.000000) " x="215" y="-142" width="3" height="444" rx="1"></rect>
            <rect id="矩形备份-3" fill="#FFFFFF" mask="url(#mask-2)" transform="translate(150.500000, 146.000000) rotate(60.000000) translate(-150.500000, -146.000000) " x="149" y="-104" width="3" height="500"></rect>
            <rect id="矩形备份-9" fill="#FFFFFF" mask="url(#mask-2)" transform="translate(150.500000, 146.000000) rotate(75.000000) translate(-150.500000, -146.000000) " x="149" y="-104" width="3" height="500"></rect>
            <rect id="矩形备份-4" fill="#FFFFFF" mask="url(#mask-2)" transform="translate(150.500000, 146.000000) rotate(90.000000) translate(-150.500000, -146.000000) " x="149" y="-104" width="3" height="500"></rect>
            <rect id="矩形备份-10" fill="#FFFFFF" mask="url(#mask-2)" transform="translate(150.500000, 146.000000) rotate(105.000000) translate(-150.500000, -146.000000) " x="149" y="-104" width="3" height="500"></rect>
            <rect id="矩形备份-5" fill="#FFFFFF" mask="url(#mask-2)" transform="translate(138.375644, 139.000000) rotate(120.000000) translate(-138.375644, -139.000000) " x="136.875644" y="56" width="3" height="166" rx="1"></rect>
            <rect id="矩形备份-19" fill="#FFFFFF" mask="url(#mask-2)" transform="translate(246.628820, 201.500000) rotate(120.000000) translate(-246.628820, -201.500000) " x="245.12882" y="167.5" width="3" height="68" rx="1"></rect>
            <rect id="矩形备份-11" fill="#FFFFFF" mask="url(#mask-2)" transform="translate(168.531223, 164.031223) rotate(135.000000) translate(-168.531223, -164.031223) " x="167.031223" y="31.5312229" width="3" height="265" rx="1"></rect>
            <rect id="矩形备份-21" fill="#FFFFFF" mask="url(#mask-2)" transform="translate(280.961201, 276.461201) rotate(135.000000) translate(-280.961201, -276.461201) " x="279.461201" y="255.961201" width="3" height="41" rx="1"></rect>
            <rect id="矩形备份-6" fill="#FFFFFF" mask="url(#mask-2)" transform="translate(147.250000, 140.370835) rotate(150.000000) translate(-147.250000, -140.370835) " x="145.75" y="15.8708349" width="3" height="249" rx="1"></rect>
            <rect id="矩形备份-18" fill="#FFFFFF" mask="url(#mask-2)" transform="translate(224.250000, 273.738747) rotate(150.000000) translate(-224.250000, -273.738747) " x="222.75" y="252.238747" width="3" height="43" rx="1"></rect>
            <rect id="矩形备份-12" fill="#FFFFFF" mask="url(#mask-2)" transform="translate(115.501612, 17.551111) rotate(165.000000) translate(-115.501612, -17.551111) " x="114.001612" y="-30.9488887" width="3" height="97" rx="1"></rect>
            <rect id="矩形备份-14" fill="#FFFFFF" mask="url(#mask-2)" transform="translate(189.589041, 292.500000) rotate(165.000000) translate(-189.589041, -292.500000) " x="188.089041" y="64" width="3" height="457" rx="1"></rect>
            <path d="M194.283598,5 L105.716402,5 C105.075279,5 104.469594,5.20373491 103.97226,5.559105 C103.474926,5.91447509 103.085943,6.42148036 102.878223,7.02802108 L8.35767545,283.028021 C8.25053179,283.340881 8.19585391,283.669303 8.19585391,284 C8.19585391,284.828427 8.53164034,285.578427 9.07453356,286.12132 C9.61742678,286.664214 10.3674268,287 11.1958539,287 L70.6825621,287 C71.2347699,287 71.7646496,286.848298 72.221841,286.574999 C72.6790324,286.3017 73.0635355,285.906803 73.32499,285.420414 L77.6780565,277.322304 C78.8110259,275.214615 80.4772059,273.503396 82.4583688,272.3191 C84.4395316,271.134804 86.7356771,270.477429 89.1285775,270.477429 L211.831588,270.477429 C214.241568,270.477429 216.552644,271.144131 218.542596,272.34359 C220.532548,273.543049 222.201377,275.275266 223.326862,277.406295 L227.549216,285.401031 C227.808943,285.892807 228.194057,286.292549 228.653277,286.569347 C229.112497,286.846146 229.645822,287 230.201971,287 L288.804146,287 C289.134844,287 289.463266,286.945322 289.776125,286.838178 C290.559866,286.569774 291.160619,286.009105 291.498334,285.319602 C291.83605,284.630099 291.910729,283.811762 291.642325,283.028021 L197.121777,7.02802108 C196.914057,6.42148036 196.525074,5.91447509 196.02774,5.559105 C195.530406,5.20373491 194.924721,5 194.283598,5 Z" id="矩形备份-13" stroke="#000000" stroke-width="10" mask="url(#mask-2)"></path>
            <g id="编组" mask="url(#mask-2)">
                <g transform="translate(79.000000, 115.000000)">
                    <path d="M71,-4 C37.4002489,-4 8.86308197,9.76283435 -3.36883399,28.8426812 C-3.81827328,29.5437351 -4.25200056,30.261796 -4.66986791,30.9961821 C-4.25483644,31.7362609 -3.81983355,32.4567038 -3.36901536,33.1600386 C8.85980125,52.2385787 37.3862949,66 70.9731012,66 C104.531871,66 133.041681,52.2627135 145.33911,33.1206842 C145.790956,32.4173455 146.227067,31.6971333 146.647297,30.9607232 C146.227363,30.2204146 145.790909,29.499588 145.338647,28.7959337 C133.09094,9.74027589 104.572199,-4 71,-4 Z" id="形状结合" stroke="#000000" stroke-width="8" fill="#FFFFFF"></path>
                    <circle id="椭圆形" stroke="#000000" stroke-width="8" fill="#FFFFFF" cx="71" cy="31" r="27"></circle>
                    <circle id="椭圆形备份-2" stroke="none" fill="#000000" cx="71" cy="31" r="16"></circle>
                </g>
            </g>
        </g>
    </g>
</svg>